<mxfile host="app.diagrams.net" modified="2022-06-09T07:20:33.774Z" agent="5.0 (Macintosh; Intel Mac OS X 10_15_7) AppleWebKit/537.36 (KHTML, like Gecko) Chrome/101.0.4951.64 Safari/537.36" etag="ekYLmDxKTRe8pqsuqlqT" version="18.1.3" type="github">
  <diagram id="NeP4MCD0ylRsNIsM_wMx" name="Page-1">
    <mxGraphModel dx="946" dy="557" grid="1" gridSize="10" guides="1" tooltips="1" connect="1" arrows="1" fold="1" page="1" pageScale="1" pageWidth="827" pageHeight="1169" math="0" shadow="0">
      <root>
        <mxCell id="0" />
        <mxCell id="1" parent="0" />
        <mxCell id="NiAWh9aWZw4LFPSC6ZZG-1" value="EC2 instance contents" style="points=[[0,0],[0.25,0],[0.5,0],[0.75,0],[1,0],[1,0.25],[1,0.5],[1,0.75],[1,1],[0.75,1],[0.5,1],[0.25,1],[0,1],[0,0.75],[0,0.5],[0,0.25]];outlineConnect=0;gradientColor=none;html=1;whiteSpace=wrap;fontSize=12;fontStyle=0;container=1;pointerEvents=0;collapsible=0;recursiveResize=0;shape=mxgraph.aws4.group;grIcon=mxgraph.aws4.group_ec2_instance_contents;strokeColor=#D86613;fillColor=none;verticalAlign=top;align=left;spacingLeft=30;fontColor=#D86613;dashed=0;" vertex="1" parent="1">
          <mxGeometry x="120" y="120" width="520" height="440" as="geometry" />
        </mxCell>
        <mxCell id="NiAWh9aWZw4LFPSC6ZZG-2" value="docker-compose" style="fillColor=none;strokeColor=#5A6C86;dashed=1;verticalAlign=top;fontStyle=0;fontColor=#5A6C86;" vertex="1" parent="NiAWh9aWZw4LFPSC6ZZG-1">
          <mxGeometry x="40" y="40" width="360" height="280" as="geometry" />
        </mxCell>
        <mxCell id="NiAWh9aWZw4LFPSC6ZZG-13" style="edgeStyle=orthogonalEdgeStyle;rounded=0;orthogonalLoop=1;jettySize=auto;html=1;" edge="1" parent="NiAWh9aWZw4LFPSC6ZZG-1" source="NiAWh9aWZw4LFPSC6ZZG-4" target="NiAWh9aWZw4LFPSC6ZZG-7">
          <mxGeometry relative="1" as="geometry">
            <Array as="points">
              <mxPoint x="210" y="190" />
            </Array>
          </mxGeometry>
        </mxCell>
        <mxCell id="NiAWh9aWZw4LFPSC6ZZG-4" value="Mysql" style="sketch=0;outlineConnect=0;fontColor=#232F3E;gradientColor=none;fillColor=#2E27AD;strokeColor=none;dashed=0;verticalLabelPosition=bottom;verticalAlign=top;align=center;html=1;fontSize=12;fontStyle=0;pointerEvents=1;shape=mxgraph.aws4.rds_mysql_instance;" vertex="1" parent="NiAWh9aWZw4LFPSC6ZZG-1">
          <mxGeometry x="320" y="160" width="40" height="40" as="geometry" />
        </mxCell>
        <mxCell id="NiAWh9aWZw4LFPSC6ZZG-11" style="edgeStyle=orthogonalEdgeStyle;rounded=0;orthogonalLoop=1;jettySize=auto;html=1;entryX=0;entryY=0.5;entryDx=0;entryDy=0;entryPerimeter=0;startArrow=classic;startFill=1;" edge="1" parent="NiAWh9aWZw4LFPSC6ZZG-1" source="NiAWh9aWZw4LFPSC6ZZG-3" target="NiAWh9aWZw4LFPSC6ZZG-9">
          <mxGeometry relative="1" as="geometry">
            <Array as="points">
              <mxPoint x="100" y="100" />
            </Array>
          </mxGeometry>
        </mxCell>
        <mxCell id="NiAWh9aWZw4LFPSC6ZZG-12" style="edgeStyle=orthogonalEdgeStyle;rounded=0;orthogonalLoop=1;jettySize=auto;html=1;" edge="1" parent="NiAWh9aWZw4LFPSC6ZZG-1" source="NiAWh9aWZw4LFPSC6ZZG-3" target="NiAWh9aWZw4LFPSC6ZZG-4">
          <mxGeometry relative="1" as="geometry" />
        </mxCell>
        <mxCell id="NiAWh9aWZw4LFPSC6ZZG-3" value="portal" style="sketch=0;points=[[0,0,0],[0.25,0,0],[0.5,0,0],[0.75,0,0],[1,0,0],[0,1,0],[0.25,1,0],[0.5,1,0],[0.75,1,0],[1,1,0],[0,0.25,0],[0,0.5,0],[0,0.75,0],[1,0.25,0],[1,0.5,0],[1,0.75,0]];points=[[0,0,0],[0.25,0,0],[0.5,0,0],[0.75,0,0],[1,0,0],[0,1,0],[0.25,1,0],[0.5,1,0],[0.75,1,0],[1,1,0],[0,0.25,0],[0,0.5,0],[0,0.75,0],[1,0.25,0],[1,0.5,0],[1,0.75,0]];outlineConnect=0;fontColor=#232F3E;gradientColor=#F34482;gradientDirection=north;fillColor=#BC1356;strokeColor=#ffffff;dashed=0;verticalLabelPosition=bottom;verticalAlign=top;align=center;html=1;fontSize=12;fontStyle=0;shape=mxgraph.aws4.resourceIcon;resIcon=mxgraph.aws4.management_console;" vertex="1" parent="NiAWh9aWZw4LFPSC6ZZG-1">
          <mxGeometry x="80" y="160" width="40" height="40" as="geometry" />
        </mxCell>
        <mxCell id="NiAWh9aWZw4LFPSC6ZZG-14" style="edgeStyle=orthogonalEdgeStyle;rounded=0;orthogonalLoop=1;jettySize=auto;html=1;" edge="1" parent="NiAWh9aWZw4LFPSC6ZZG-1" source="NiAWh9aWZw4LFPSC6ZZG-7" target="NiAWh9aWZw4LFPSC6ZZG-4">
          <mxGeometry relative="1" as="geometry">
            <Array as="points">
              <mxPoint x="380" y="260" />
              <mxPoint x="380" y="180" />
            </Array>
          </mxGeometry>
        </mxCell>
        <mxCell id="NiAWh9aWZw4LFPSC6ZZG-7" value="Celery Job" style="sketch=0;html=1;points=[];align=center;image;fontSize=12;image=img/lib/mscae/SchedulerJobCollection.svg;" vertex="1" parent="NiAWh9aWZw4LFPSC6ZZG-1">
          <mxGeometry x="190" y="240" width="40" height="40" as="geometry" />
        </mxCell>
        <mxCell id="NiAWh9aWZw4LFPSC6ZZG-9" value="Auth" style="sketch=0;points=[[0,0,0],[0.25,0,0],[0.5,0,0],[0.75,0,0],[1,0,0],[0,1,0],[0.25,1,0],[0.5,1,0],[0.75,1,0],[1,1,0],[0,0.25,0],[0,0.5,0],[0,0.75,0],[1,0.25,0],[1,0.5,0],[1,0.75,0]];points=[[0,0,0],[0.25,0,0],[0.5,0,0],[0.75,0,0],[1,0,0],[0,1,0],[0.25,1,0],[0.5,1,0],[0.75,1,0],[1,1,0],[0,0.25,0],[0,0.5,0],[0,0.75,0],[1,0.25,0],[1,0.5,0],[1,0.75,0]];outlineConnect=0;fontColor=#232F3E;gradientColor=#F34482;gradientDirection=north;fillColor=#BC1356;strokeColor=#ffffff;dashed=0;verticalLabelPosition=bottom;verticalAlign=top;align=center;html=1;fontSize=12;fontStyle=0;shape=mxgraph.aws4.resourceIcon;resIcon=mxgraph.aws4.management_console;" vertex="1" parent="NiAWh9aWZw4LFPSC6ZZG-1">
          <mxGeometry x="200" y="80" width="40" height="40" as="geometry" />
        </mxCell>
        <mxCell id="NiAWh9aWZw4LFPSC6ZZG-10" style="edgeStyle=orthogonalEdgeStyle;rounded=0;orthogonalLoop=1;jettySize=auto;html=1;" edge="1" parent="1" source="NiAWh9aWZw4LFPSC6ZZG-8" target="NiAWh9aWZw4LFPSC6ZZG-3">
          <mxGeometry relative="1" as="geometry" />
        </mxCell>
        <mxCell id="NiAWh9aWZw4LFPSC6ZZG-8" value="User" style="sketch=0;outlineConnect=0;fontColor=#232F3E;gradientColor=none;fillColor=#232F3D;strokeColor=none;dashed=0;verticalLabelPosition=bottom;verticalAlign=top;align=center;html=1;fontSize=12;fontStyle=0;aspect=fixed;pointerEvents=1;shape=mxgraph.aws4.user;" vertex="1" parent="1">
          <mxGeometry x="40" y="280" width="40" height="40" as="geometry" />
        </mxCell>
      </root>
    </mxGraphModel>
  </diagram>
</mxfile>
